<?xml version="1.0" standalone="no"?>
<!DOCTYPE svg PUBLIC "-//W3C//DTD SVG 20010904//EN"
 "http://www.w3.org/TR/2001/REC-SVG-20010904/DTD/svg10.dtd">
<svg version="1.0" xmlns="http://www.w3.org/2000/svg"
 width="250.000000pt" height="250.000000pt" viewBox="0 0 250.000000 250.000000"
 preserveAspectRatio="xMidYMid meet">
<metadata>
Created by potrace 1.11, written by Peter Selinger 2001-2013
</metadata>
<g transform="translate(0.000000,250.000000) scale(0.100000,-0.100000)"
fill="#000000" stroke="none">
<path d="M1195 2469 c-100 -9 -159 -17 -210 -31 -22 -5 -47 -12 -55 -13 -97
-22 -228 -103 -305 -187 -59 -66 -127 -192 -151 -283 -41 -155 -46 -192 -47
-367 l0 -177 -29 -12 c-30 -12 -34 -19 -98 -179 -55 -136 -55 -167 2 -280 47
-94 110 -163 176 -195 37 -18 44 -27 59 -75 9 -30 16 -58 15 -62 -1 -5 2 -8 8
-8 5 0 10 -6 10 -12 0 -16 42 -102 53 -106 4 -2 7 -8 7 -14 0 -15 54 -89 98
-133 144 -145 303 -243 472 -291 63 -18 259 -11 330 11 68 21 180 75 180 87 0
4 5 8 11 8 16 0 87 57 147 119 58 61 124 169 169 281 41 99 93 264 93 293 0
15 11 28 33 40 36 20 124 150 140 207 15 55 2 160 -27 222 -30 64 -97 138
-125 138 -24 0 -32 31 -31 124 1 99 -29 273 -59 341 -5 11 -17 40 -26 64 -26
70 -96 170 -177 252 -92 93 -141 127 -233 164 -38 15 -76 32 -84 39 -8 6 -17
10 -20 8 -6 -3 -33 1 -91 13 -63 14 -162 19 -235 14z"/>
</g>
</svg>
